<svg width="350" height="389" viewBox="0 0 350 389" fill="none" xmlns="http://www.w3.org/2000/svg">
<path d="M150 352.007L113.007 389V352.007H75L113.007 314H150V352.007Z" fill="#7188AA" fill-opacity="0.26"/>
<path d="M150 277.007L113.007 314V277.007H75L113.007 239H150V277.007Z" fill="#7188AA" fill-opacity="0.26"/>
<path d="M75 277.007L38.0068 314V277.007H0L38.0068 239H75V277.007Z" fill="#7188AA" fill-opacity="0.26"/>
<path d="M75 352.007L38.0068 389V352.007H0L38.0068 314H75V352.007Z" fill="#7188AA" fill-opacity="0.26"/>
<path d="M350 42.1892L336.189 56V42.1892H322L336.189 28H350V42.1892Z" fill="#7188AA" fill-opacity="0.26"/>
<path d="M350 14.1892L336.189 28V14.1892H322L336.189 0H350V14.1892Z" fill="#7188AA" fill-opacity="0.26"/>
<path d="M322 14.1892L308.189 28V14.1892H294L308.189 0H322V14.1892Z" fill="#7188AA" fill-opacity="0.26"/>
<path d="M322 42.1892L308.189 56V42.1892H294L308.189 28H322V42.1892Z" fill="#7188AA" fill-opacity="0.26"/>
</svg>
