<svg width="256" height="213" viewBox="0 0 256 213" fill="none" xmlns="http://www.w3.org/2000/svg">
<g filter="url(#filter0_d_9_52)">
<path d="M27 21C27 16.5817 30.5817 13 35 13H225C229.418 13 233 16.5817 233 21V168C233 172.418 229.418 176 225 176H35C30.5817 176 27 172.418 27 168V21Z" fill="white"/>
<rect x="42" y="27" width="105" height="18" rx="9" fill="#C9D6E9"/>
<path d="M65.2363 41L62.3594 33.418H62.3125C62.3281 33.5781 62.3418 33.7734 62.3535 34.0039C62.3652 34.2344 62.375 34.4863 62.3828 34.7598C62.3906 35.0293 62.3945 35.3047 62.3945 35.5859V41H61.4688V32.4336H62.9453L65.6582 39.5586H65.6992L68.4531 32.4336H69.918V41H68.9336V35.5156C68.9336 35.2617 68.9375 35.0078 68.9453 34.7539C68.9531 34.4961 68.9629 34.2539 68.9746 34.0273C68.9863 33.7969 68.998 33.5977 69.0098 33.4297H68.9629L66.0508 41H65.2363ZM74.5176 34.4727C75.2832 34.4727 75.8516 34.6445 76.2227 34.9883C76.5938 35.332 76.7793 35.8809 76.7793 36.6348V41H76.0703L75.8828 40.0508H75.8359C75.6562 40.2852 75.4688 40.4824 75.2734 40.6426C75.0781 40.7988 74.8516 40.918 74.5938 41C74.3398 41.0781 74.0273 41.1172 73.6562 41.1172C73.2656 41.1172 72.918 41.0488 72.6133 40.9121C72.3125 40.7754 72.0742 40.5684 71.8984 40.291C71.7266 40.0137 71.6406 39.6621 71.6406 39.2363C71.6406 38.5957 71.8945 38.1035 72.4023 37.7598C72.9102 37.416 73.6836 37.2285 74.7227 37.1973L75.8301 37.1504V36.7578C75.8301 36.2031 75.7109 35.8145 75.4727 35.5918C75.2344 35.3691 74.8984 35.2578 74.4648 35.2578C74.1289 35.2578 73.8086 35.3066 73.5039 35.4043C73.1992 35.502 72.9102 35.6172 72.6367 35.75L72.3379 35.0117C72.627 34.8633 72.959 34.7363 73.334 34.6309C73.709 34.5254 74.1035 34.4727 74.5176 34.4727ZM75.8184 37.8359L74.8398 37.877C74.0391 37.9082 73.4746 38.0391 73.1465 38.2695C72.8184 38.5 72.6543 38.8262 72.6543 39.248C72.6543 39.6152 72.7656 39.8867 72.9883 40.0625C73.2109 40.2383 73.5059 40.3262 73.873 40.3262C74.4434 40.3262 74.9102 40.168 75.2734 39.8516C75.6367 39.5352 75.8184 39.0605 75.8184 38.4277V37.8359ZM81.7012 34.4609C81.8301 34.4609 81.9648 34.4688 82.1055 34.4844C82.2461 34.4961 82.3711 34.5137 82.4805 34.5371L82.3574 35.4395C82.252 35.4121 82.1348 35.3906 82.0059 35.375C81.877 35.3594 81.7559 35.3516 81.6426 35.3516C81.3848 35.3516 81.1406 35.4043 80.9102 35.5098C80.6836 35.6113 80.4844 35.7598 80.3125 35.9551C80.1406 36.1465 80.0059 36.3789 79.9082 36.6523C79.8105 36.9219 79.7617 37.2227 79.7617 37.5547V41H78.7832V34.5781H79.5918L79.6973 35.7617H79.7383C79.8711 35.5234 80.0312 35.3066 80.2188 35.1113C80.4062 34.9121 80.623 34.7539 80.8691 34.6367C81.1191 34.5195 81.3965 34.4609 81.7012 34.4609ZM84.6602 31.8828V36.6172C84.6602 36.7734 84.6543 36.9648 84.6426 37.1914C84.6309 37.4141 84.6211 37.6113 84.6133 37.7832H84.6543C84.7363 37.6816 84.8555 37.5312 85.0117 37.332C85.1719 37.1328 85.3066 36.9727 85.416 36.8516L87.5488 34.5781H88.6914L86.1074 37.3203L88.8789 41H87.707L85.4395 37.959L84.6602 38.6738V41H83.6934V31.8828H84.6602ZM92.4707 34.4609C93.0176 34.4609 93.4863 34.582 93.877 34.8242C94.2676 35.0664 94.5664 35.4062 94.7734 35.8438C94.9805 36.2773 95.084 36.7852 95.084 37.3672V37.9707H90.6484C90.6602 38.7246 90.8477 39.2988 91.2109 39.6934C91.5742 40.0879 92.0859 40.2852 92.7461 40.2852C93.1523 40.2852 93.5117 40.248 93.8242 40.1738C94.1367 40.0996 94.4609 39.9902 94.7969 39.8457V40.7012C94.4727 40.8457 94.1504 40.9512 93.8301 41.0176C93.5137 41.084 93.1387 41.1172 92.7051 41.1172C92.0879 41.1172 91.5488 40.9922 91.0879 40.7422C90.6309 40.4883 90.2754 40.1172 90.0215 39.6289C89.7676 39.1406 89.6406 38.543 89.6406 37.8359C89.6406 37.1445 89.7559 36.5469 89.9863 36.043C90.2207 35.5352 90.5488 35.1445 90.9707 34.8711C91.3965 34.5977 91.8965 34.4609 92.4707 34.4609ZM92.459 35.2578C91.9395 35.2578 91.5254 35.4277 91.2168 35.7676C90.9082 36.1074 90.7246 36.582 90.666 37.1914H94.0645C94.0605 36.8086 94 36.4727 93.8828 36.1836C93.7695 35.8906 93.5957 35.6641 93.3613 35.5039C93.127 35.3398 92.8262 35.2578 92.459 35.2578ZM98.8105 40.3203C98.9707 40.3203 99.1348 40.3066 99.3027 40.2793C99.4707 40.252 99.6074 40.2188 99.7129 40.1797V40.9355C99.5996 40.9863 99.4414 41.0293 99.2383 41.0645C99.0391 41.0996 98.8438 41.1172 98.6523 41.1172C98.3125 41.1172 98.0039 41.0586 97.7266 40.9414C97.4492 40.8203 97.2266 40.6172 97.0586 40.332C96.8945 40.0469 96.8125 39.6523 96.8125 39.1484V35.3398H95.8984V34.8652L96.8184 34.4844L97.2051 33.0898H97.791V34.5781H99.6719V35.3398H97.791V39.1191C97.791 39.5215 97.8828 39.8223 98.0664 40.0215C98.2539 40.2207 98.502 40.3203 98.8105 40.3203ZM109.111 38.7207C109.111 39.2285 108.984 39.6621 108.73 40.0215C108.48 40.377 108.129 40.6484 107.676 40.8359C107.223 41.0234 106.689 41.1172 106.076 41.1172C105.752 41.1172 105.445 41.1016 105.156 41.0703C104.867 41.0391 104.602 40.9941 104.359 40.9355C104.117 40.877 103.904 40.8047 103.721 40.7188V39.7637C104.014 39.8848 104.371 39.998 104.793 40.1035C105.215 40.2051 105.656 40.2559 106.117 40.2559C106.547 40.2559 106.91 40.1992 107.207 40.0859C107.504 39.9688 107.729 39.8027 107.881 39.5879C108.037 39.3691 108.115 39.1074 108.115 38.8027C108.115 38.5098 108.051 38.2656 107.922 38.0703C107.793 37.8711 107.578 37.6914 107.277 37.5312C106.98 37.3672 106.574 37.1934 106.059 37.0098C105.695 36.8809 105.375 36.7402 105.098 36.5879C104.82 36.4316 104.588 36.2559 104.4 36.0605C104.213 35.8652 104.07 35.6387 103.973 35.3809C103.879 35.123 103.832 34.8281 103.832 34.4961C103.832 34.0391 103.947 33.6484 104.178 33.3242C104.412 32.9961 104.734 32.7461 105.145 32.5742C105.559 32.3984 106.033 32.3105 106.568 32.3105C107.025 32.3105 107.447 32.3535 107.834 32.4395C108.225 32.5254 108.582 32.6406 108.906 32.7852L108.596 33.6406C108.287 33.5117 107.959 33.4043 107.611 33.3184C107.268 33.2324 106.912 33.1895 106.545 33.1895C106.178 33.1895 105.867 33.2441 105.613 33.3535C105.363 33.459 105.172 33.6094 105.039 33.8047C104.906 34 104.84 34.2324 104.84 34.502C104.84 34.8027 104.902 35.0527 105.027 35.252C105.156 35.4512 105.359 35.6289 105.637 35.7852C105.918 35.9375 106.289 36.0977 106.75 36.2656C107.254 36.4492 107.682 36.6445 108.033 36.8516C108.385 37.0547 108.652 37.3047 108.836 37.6016C109.02 37.8945 109.111 38.2676 109.111 38.7207ZM112.791 40.3203C112.951 40.3203 113.115 40.3066 113.283 40.2793C113.451 40.252 113.588 40.2188 113.693 40.1797V40.9355C113.58 40.9863 113.422 41.0293 113.219 41.0645C113.02 41.0996 112.824 41.1172 112.633 41.1172C112.293 41.1172 111.984 41.0586 111.707 40.9414C111.43 40.8203 111.207 40.6172 111.039 40.332C110.875 40.0469 110.793 39.6523 110.793 39.1484V35.3398H109.879V34.8652L110.799 34.4844L111.186 33.0898H111.771V34.5781H113.652V35.3398H111.771V39.1191C111.771 39.5215 111.863 39.8223 112.047 40.0215C112.234 40.2207 112.482 40.3203 112.791 40.3203ZM117.396 34.4727C118.162 34.4727 118.73 34.6445 119.102 34.9883C119.473 35.332 119.658 35.8809 119.658 36.6348V41H118.949L118.762 40.0508H118.715C118.535 40.2852 118.348 40.4824 118.152 40.6426C117.957 40.7988 117.73 40.918 117.473 41C117.219 41.0781 116.906 41.1172 116.535 41.1172C116.145 41.1172 115.797 41.0488 115.492 40.9121C115.191 40.7754 114.953 40.5684 114.777 40.291C114.605 40.0137 114.52 39.6621 114.52 39.2363C114.52 38.5957 114.773 38.1035 115.281 37.7598C115.789 37.416 116.562 37.2285 117.602 37.1973L118.709 37.1504V36.7578C118.709 36.2031 118.59 35.8145 118.352 35.5918C118.113 35.3691 117.777 35.2578 117.344 35.2578C117.008 35.2578 116.688 35.3066 116.383 35.4043C116.078 35.502 115.789 35.6172 115.516 35.75L115.217 35.0117C115.506 34.8633 115.838 34.7363 116.213 34.6309C116.588 34.5254 116.982 34.4727 117.396 34.4727ZM118.697 37.8359L117.719 37.877C116.918 37.9082 116.354 38.0391 116.025 38.2695C115.697 38.5 115.533 38.8262 115.533 39.248C115.533 39.6152 115.645 39.8867 115.867 40.0625C116.09 40.2383 116.385 40.3262 116.752 40.3262C117.322 40.3262 117.789 40.168 118.152 39.8516C118.516 39.5352 118.697 39.0605 118.697 38.4277V37.8359ZM123.736 40.3203C123.896 40.3203 124.061 40.3066 124.229 40.2793C124.396 40.252 124.533 40.2188 124.639 40.1797V40.9355C124.525 40.9863 124.367 41.0293 124.164 41.0645C123.965 41.0996 123.77 41.1172 123.578 41.1172C123.238 41.1172 122.93 41.0586 122.652 40.9414C122.375 40.8203 122.152 40.6172 121.984 40.332C121.82 40.0469 121.738 39.6523 121.738 39.1484V35.3398H120.824V34.8652L121.744 34.4844L122.131 33.0898H122.717V34.5781H124.598V35.3398H122.717V39.1191C122.717 39.5215 122.809 39.8223 122.992 40.0215C123.18 40.2207 123.428 40.3203 123.736 40.3203ZM126.912 34.5781V41H125.939V34.5781H126.912ZM126.438 32.1758C126.598 32.1758 126.734 32.2285 126.848 32.334C126.965 32.4355 127.023 32.5957 127.023 32.8145C127.023 33.0293 126.965 33.1895 126.848 33.2949C126.734 33.4004 126.598 33.4531 126.438 33.4531C126.27 33.4531 126.129 33.4004 126.016 33.2949C125.906 33.1895 125.852 33.0293 125.852 32.8145C125.852 32.5957 125.906 32.4355 126.016 32.334C126.129 32.2285 126.27 32.1758 126.438 32.1758ZM131.547 41.1172C130.969 41.1172 130.459 40.998 130.018 40.7598C129.576 40.5215 129.232 40.1582 128.986 39.6699C128.74 39.1816 128.617 38.5664 128.617 37.8242C128.617 37.0469 128.746 36.4121 129.004 35.9199C129.266 35.4238 129.625 35.0566 130.082 34.8184C130.539 34.5801 131.059 34.4609 131.641 34.4609C131.961 34.4609 132.27 34.4941 132.566 34.5605C132.867 34.623 133.113 34.7031 133.305 34.8008L133.012 35.6152C132.816 35.5371 132.59 35.4668 132.332 35.4043C132.078 35.3418 131.84 35.3105 131.617 35.3105C131.172 35.3105 130.801 35.4062 130.504 35.5977C130.211 35.7891 129.99 36.0703 129.842 36.4414C129.697 36.8125 129.625 37.2695 129.625 37.8125C129.625 38.332 129.695 38.7754 129.836 39.1426C129.98 39.5098 130.193 39.791 130.475 39.9863C130.76 40.1777 131.115 40.2734 131.541 40.2734C131.881 40.2734 132.188 40.2383 132.461 40.168C132.734 40.0938 132.982 40.0078 133.205 39.9102V40.7773C132.99 40.8867 132.75 40.9707 132.484 41.0293C132.223 41.0879 131.91 41.1172 131.547 41.1172Z" fill="#4C6487"/>
<circle cx="52.5" cy="36.5" r="2.5" fill="#4C6487"/>
<path d="M42 119.702C53.6249 121.181 57 117.031 58.3636 109.686C66.5455 95.6643 88.3636 94.3289 96.5455 101.006C110.182 118.367 116.318 121.705 125.182 103.009C138.907 84.028 142.899 83.6137 149.727 92.9934C159.086 99.1312 161.245 101.271 162.682 109.019C164.727 113.025 169.309 111.708 170.864 105.68C187 80.9993 195 79 210 92.9935" stroke="#445670" stroke-width="2" stroke-linecap="round"/>
<circle cx="159.5" cy="100.5" r="4.85" fill="white" stroke="#597193" stroke-width="1.3"/>
<rect x="166" y="148" width="26" height="15" rx="7.5" fill="#C9D6E9"/>
<path d="M52.5518 159.88C52.389 159.88 52.2458 159.868 52.1221 159.846C51.9984 159.823 51.8926 159.792 51.8047 159.753V159.045C51.9089 159.077 52.0212 159.102 52.1416 159.118C52.262 159.138 52.3923 159.147 52.5322 159.147C52.7145 159.147 52.8822 159.112 53.0352 159.04C53.1882 158.968 53.3102 158.846 53.4014 158.674C53.4925 158.501 53.5381 158.264 53.5381 157.961V150.861H54.373V157.897C54.373 158.343 54.2982 158.713 54.1484 159.006C54.002 159.299 53.792 159.517 53.5186 159.66C53.2484 159.807 52.9261 159.88 52.5518 159.88ZM58.2475 152.561C58.8855 152.561 59.3591 152.704 59.6684 152.99C59.9776 153.277 60.1322 153.734 60.1322 154.362V158H59.5414L59.3852 157.209H59.3461C59.1964 157.404 59.0401 157.569 58.8773 157.702C58.7146 157.832 58.5258 157.932 58.3109 158C58.0993 158.065 57.8389 158.098 57.5297 158.098C57.2042 158.098 56.9145 158.041 56.6605 157.927C56.4099 157.813 56.2113 157.64 56.0648 157.409C55.9216 157.178 55.85 156.885 55.85 156.53C55.85 155.996 56.0616 155.586 56.4848 155.3C56.9079 155.013 57.5525 154.857 58.4184 154.831L59.3412 154.792V154.465C59.3412 154.003 59.2419 153.679 59.0434 153.493C58.8448 153.308 58.5648 153.215 58.2035 153.215C57.9236 153.215 57.6566 153.256 57.4027 153.337C57.1488 153.418 56.9079 153.514 56.6801 153.625L56.4311 153.01C56.6719 152.886 56.9486 152.78 57.2611 152.692C57.5736 152.604 57.9024 152.561 58.2475 152.561ZM59.3314 155.363L58.516 155.397C57.8487 155.424 57.3783 155.533 57.1049 155.725C56.8314 155.917 56.6947 156.188 56.6947 156.54C56.6947 156.846 56.7875 157.072 56.973 157.219C57.1586 157.365 57.4044 157.438 57.7104 157.438C58.1856 157.438 58.5746 157.307 58.8773 157.043C59.1801 156.779 59.3314 156.384 59.3314 155.856V155.363ZM64.4363 152.551C65.0711 152.551 65.5512 152.707 65.8768 153.02C66.2023 153.329 66.365 153.827 66.365 154.514V158H65.5643V154.567C65.5643 154.121 65.4617 153.788 65.2566 153.566C65.0548 153.345 64.7439 153.234 64.324 153.234C63.7316 153.234 63.3149 153.402 63.074 153.737C62.8331 154.073 62.7127 154.559 62.7127 155.197V158H61.9021V152.648H62.5564L62.6785 153.42H62.7225C62.8364 153.231 62.9813 153.073 63.157 152.946C63.3328 152.816 63.5298 152.718 63.7479 152.653C63.966 152.585 64.1954 152.551 64.4363 152.551ZM77.1801 158H76.35V150.861H80.3246V151.594H77.1801V154.211H80.1342V154.938H77.1801V158ZM83.5545 152.551C84.0102 152.551 84.4008 152.652 84.7264 152.854C85.0519 153.055 85.3009 153.339 85.4734 153.703C85.646 154.064 85.7322 154.488 85.7322 154.973V155.476H82.0359C82.0457 156.104 82.202 156.582 82.5047 156.911C82.8074 157.24 83.2339 157.404 83.784 157.404C84.1225 157.404 84.422 157.373 84.6824 157.312C84.9428 157.25 85.213 157.159 85.493 157.038V157.751C85.2228 157.871 84.9542 157.959 84.6873 158.015C84.4236 158.07 84.1111 158.098 83.7498 158.098C83.2355 158.098 82.7863 157.993 82.4021 157.785C82.0213 157.574 81.7251 157.264 81.5135 156.857C81.3019 156.451 81.1961 155.952 81.1961 155.363C81.1961 154.787 81.2921 154.289 81.4842 153.869C81.6795 153.446 81.9529 153.12 82.3045 152.893C82.6593 152.665 83.076 152.551 83.5545 152.551ZM83.5447 153.215C83.1118 153.215 82.7667 153.356 82.5096 153.64C82.2524 153.923 82.0994 154.318 82.0506 154.826H84.8826C84.8794 154.507 84.8289 154.227 84.7313 153.986C84.6368 153.742 84.492 153.553 84.2967 153.42C84.1014 153.283 83.8507 153.215 83.5447 153.215ZM88.0197 150.402V152.302C88.0197 152.52 88.0132 152.731 88.0002 152.937C87.9904 153.142 87.9823 153.301 87.9758 153.415H88.0197C88.1662 153.174 88.3778 152.971 88.6545 152.805C88.9312 152.639 89.2844 152.556 89.7141 152.556C90.3846 152.556 90.9185 152.788 91.3156 153.254C91.716 153.716 91.9162 154.405 91.9162 155.319C91.9162 155.922 91.8251 156.429 91.6428 156.843C91.4605 157.256 91.2033 157.569 90.8713 157.78C90.5393 157.992 90.147 158.098 89.6945 158.098C89.2714 158.098 88.923 158.02 88.6496 157.863C88.3794 157.704 88.1711 157.51 88.0246 157.282H87.9611L87.7951 158H87.2092V150.402H88.0197ZM89.5822 153.234C89.1949 153.234 88.8872 153.311 88.6594 153.464C88.4315 153.614 88.2671 153.841 88.1662 154.147C88.0686 154.45 88.0197 154.834 88.0197 155.3V155.344C88.0197 156.018 88.132 156.534 88.3566 156.892C88.5812 157.246 88.9898 157.424 89.5822 157.424C90.0803 157.424 90.453 157.242 90.7004 156.877C90.951 156.512 91.0764 155.992 91.0764 155.314C91.0764 154.624 90.9527 154.105 90.7053 153.757C90.4611 153.409 90.0868 153.234 89.5822 153.234ZM102.089 158L99.6918 151.682H99.6527C99.6658 151.815 99.6771 151.978 99.6869 152.17C99.6967 152.362 99.7048 152.572 99.7113 152.8C99.7178 153.024 99.7211 153.254 99.7211 153.488V158H98.9496V150.861H100.18L102.441 156.799H102.475L104.77 150.861H105.991V158H105.17V153.43C105.17 153.218 105.174 153.007 105.18 152.795C105.187 152.58 105.195 152.378 105.204 152.189C105.214 151.997 105.224 151.831 105.234 151.691H105.195L102.768 158H102.089ZM109.924 152.561C110.562 152.561 111.035 152.704 111.345 152.99C111.654 153.277 111.808 153.734 111.808 154.362V158H111.218L111.061 157.209H111.022C110.873 157.404 110.716 157.569 110.554 157.702C110.391 157.832 110.202 157.932 109.987 158C109.776 158.065 109.515 158.098 109.206 158.098C108.88 158.098 108.591 158.041 108.337 157.927C108.086 157.813 107.887 157.64 107.741 157.409C107.598 157.178 107.526 156.885 107.526 156.53C107.526 155.996 107.738 155.586 108.161 155.3C108.584 155.013 109.229 154.857 110.095 154.831L111.017 154.792V154.465C111.017 154.003 110.918 153.679 110.72 153.493C110.521 153.308 110.241 153.215 109.88 153.215C109.6 153.215 109.333 153.256 109.079 153.337C108.825 153.418 108.584 153.514 108.356 153.625L108.107 153.01C108.348 152.886 108.625 152.78 108.937 152.692C109.25 152.604 109.579 152.561 109.924 152.561ZM111.008 155.363L110.192 155.397C109.525 155.424 109.054 155.533 108.781 155.725C108.508 155.917 108.371 156.188 108.371 156.54C108.371 156.846 108.464 157.072 108.649 157.219C108.835 157.365 109.081 157.438 109.387 157.438C109.862 157.438 110.251 157.307 110.554 157.043C110.856 156.779 111.008 156.384 111.008 155.856V155.363ZM116.01 152.551C116.117 152.551 116.23 152.557 116.347 152.57C116.464 152.58 116.568 152.595 116.659 152.614L116.557 153.366C116.469 153.343 116.371 153.326 116.264 153.312C116.156 153.299 116.056 153.293 115.961 153.293C115.746 153.293 115.543 153.337 115.351 153.425C115.162 153.509 114.996 153.633 114.853 153.796C114.71 153.955 114.597 154.149 114.516 154.377C114.434 154.602 114.394 154.852 114.394 155.129V158H113.578V152.648H114.252L114.34 153.635H114.374C114.485 153.436 114.618 153.256 114.775 153.093C114.931 152.927 115.112 152.795 115.317 152.697C115.525 152.6 115.756 152.551 116.01 152.551ZM127.765 158L126.886 155.734H124.025L123.151 158H122.311L125.104 150.832H125.851L128.624 158H127.765ZM126.637 154.997L125.802 152.746C125.783 152.688 125.75 152.591 125.704 152.458C125.662 152.325 125.618 152.186 125.573 152.043C125.527 151.9 125.49 151.784 125.46 151.696C125.428 151.83 125.392 151.963 125.353 152.097C125.317 152.227 125.281 152.349 125.246 152.463C125.21 152.574 125.179 152.668 125.153 152.746L124.303 154.997H126.637ZM132.108 152.551C132.776 152.551 133.308 152.78 133.705 153.239C134.102 153.698 134.301 154.388 134.301 155.31C134.301 155.918 134.209 156.429 134.027 156.843C133.845 157.256 133.588 157.569 133.256 157.78C132.927 157.992 132.538 158.098 132.089 158.098C131.805 158.098 131.556 158.06 131.342 157.985C131.127 157.91 130.943 157.81 130.79 157.683C130.637 157.556 130.51 157.417 130.409 157.268H130.35C130.36 157.395 130.372 157.548 130.385 157.727C130.401 157.906 130.409 158.062 130.409 158.195V160.393H129.594V152.648H130.262L130.37 153.439H130.409C130.513 153.277 130.64 153.129 130.79 152.995C130.94 152.858 131.122 152.751 131.337 152.673C131.555 152.591 131.812 152.551 132.108 152.551ZM131.967 153.234C131.596 153.234 131.296 153.306 131.068 153.449C130.844 153.592 130.679 153.807 130.575 154.094C130.471 154.377 130.415 154.733 130.409 155.163V155.319C130.409 155.772 130.458 156.154 130.555 156.467C130.656 156.779 130.821 157.017 131.049 157.18C131.28 157.342 131.589 157.424 131.976 157.424C132.308 157.424 132.585 157.334 132.806 157.155C133.028 156.976 133.192 156.727 133.3 156.408C133.41 156.086 133.466 155.716 133.466 155.3C133.466 154.668 133.342 154.167 133.095 153.796C132.85 153.422 132.474 153.234 131.967 153.234ZM138.248 152.551C138.356 152.551 138.468 152.557 138.585 152.57C138.702 152.58 138.807 152.595 138.898 152.614L138.795 153.366C138.707 153.343 138.61 153.326 138.502 153.312C138.395 153.299 138.294 153.293 138.199 153.293C137.985 153.293 137.781 153.337 137.589 153.425C137.4 153.509 137.234 153.633 137.091 153.796C136.948 153.955 136.835 154.149 136.754 154.377C136.673 154.602 136.632 154.852 136.632 155.129V158H135.817V152.648H136.49L136.578 153.635H136.613C136.723 153.436 136.857 153.256 137.013 153.093C137.169 152.927 137.35 152.795 137.555 152.697C137.763 152.6 137.994 152.551 138.248 152.551ZM148.665 158L146.268 151.682H146.229C146.242 151.815 146.253 151.978 146.263 152.17C146.273 152.362 146.281 152.572 146.287 152.8C146.294 153.024 146.297 153.254 146.297 153.488V158H145.526V150.861H146.756L149.017 156.799H149.051L151.346 150.861H152.567V158H151.746V153.43C151.746 153.218 151.75 153.007 151.756 152.795C151.763 152.58 151.771 152.378 151.781 152.189C151.79 151.997 151.8 151.831 151.81 151.691H151.771L149.344 158H148.665ZM156.5 152.561C157.138 152.561 157.611 152.704 157.921 152.99C158.23 153.277 158.385 153.734 158.385 154.362V158H157.794L157.637 157.209H157.598C157.449 157.404 157.292 157.569 157.13 157.702C156.967 157.832 156.778 157.932 156.563 158C156.352 158.065 156.091 158.098 155.782 158.098C155.457 158.098 155.167 158.041 154.913 157.927C154.662 157.813 154.464 157.64 154.317 157.409C154.174 157.178 154.102 156.885 154.102 156.53C154.102 155.996 154.314 155.586 154.737 155.3C155.16 155.013 155.805 154.857 156.671 154.831L157.594 154.792V154.465C157.594 154.003 157.494 153.679 157.296 153.493C157.097 153.308 156.817 153.215 156.456 153.215C156.176 153.215 155.909 153.256 155.655 153.337C155.401 153.418 155.16 153.514 154.932 153.625L154.683 153.01C154.924 152.886 155.201 152.78 155.513 152.692C155.826 152.604 156.155 152.561 156.5 152.561ZM157.584 155.363L156.768 155.397C156.101 155.424 155.631 155.533 155.357 155.725C155.084 155.917 154.947 156.188 154.947 156.54C154.947 156.846 155.04 157.072 155.225 157.219C155.411 157.365 155.657 157.438 155.963 157.438C156.438 157.438 156.827 157.307 157.13 157.043C157.432 156.779 157.584 156.384 157.584 155.856V155.363ZM159.31 152.648H160.179L161.361 155.754C161.429 155.936 161.492 156.112 161.551 156.281C161.61 156.447 161.662 156.607 161.707 156.76C161.753 156.913 161.789 157.061 161.815 157.204H161.849C161.894 157.041 161.96 156.828 162.044 156.564C162.129 156.298 162.22 156.026 162.318 155.749L163.436 152.648H164.31L161.981 158.786C161.857 159.115 161.712 159.401 161.546 159.646C161.383 159.89 161.185 160.077 160.95 160.207C160.716 160.34 160.433 160.407 160.101 160.407C159.948 160.407 159.813 160.397 159.696 160.378C159.578 160.362 159.477 160.342 159.393 160.319V159.67C159.464 159.686 159.551 159.701 159.652 159.714C159.756 159.727 159.863 159.733 159.974 159.733C160.176 159.733 160.35 159.694 160.496 159.616C160.646 159.541 160.775 159.431 160.882 159.284C160.989 159.138 161.082 158.964 161.16 158.762L161.453 158.01L159.31 152.648ZM195.793 159.88C195.63 159.88 195.487 159.868 195.363 159.846C195.24 159.823 195.134 159.792 195.046 159.753V159.045C195.15 159.077 195.263 159.102 195.383 159.118C195.503 159.138 195.634 159.147 195.774 159.147C195.956 159.147 196.124 159.112 196.277 159.04C196.43 158.968 196.552 158.846 196.643 158.674C196.734 158.501 196.779 158.264 196.779 157.961V150.861H197.614V157.897C197.614 158.343 197.54 158.713 197.39 159.006C197.243 159.299 197.033 159.517 196.76 159.66C196.49 159.807 196.168 159.88 195.793 159.88ZM203.906 152.648V158H203.242L203.125 157.248H203.081C202.97 157.434 202.827 157.59 202.651 157.717C202.475 157.844 202.277 157.938 202.055 158C201.837 158.065 201.604 158.098 201.357 158.098C200.934 158.098 200.579 158.029 200.293 157.893C200.006 157.756 199.79 157.544 199.643 157.258C199.5 156.971 199.428 156.604 199.428 156.154V152.648H200.249V156.096C200.249 156.542 200.35 156.875 200.551 157.097C200.753 157.315 201.061 157.424 201.474 157.424C201.871 157.424 202.187 157.349 202.421 157.199C202.659 157.049 202.83 156.83 202.934 156.54C203.038 156.247 203.09 155.889 203.09 155.466V152.648H203.906ZM206.535 158H205.72V150.402H206.535V158Z" fill="#6D7589"/>
<path d="M172.449 159.88C172.286 159.88 172.143 159.868 172.019 159.846C171.896 159.823 171.79 159.792 171.702 159.753V159.045C171.806 159.077 171.918 159.102 172.039 159.118C172.159 159.138 172.29 159.147 172.429 159.147C172.612 159.147 172.779 159.112 172.932 159.04C173.085 158.968 173.207 158.846 173.299 158.674C173.39 158.501 173.435 158.264 173.435 157.961V150.861H174.27V157.897C174.27 158.343 174.195 158.713 174.046 159.006C173.899 159.299 173.689 159.517 173.416 159.66C173.146 159.807 172.823 159.88 172.449 159.88ZM180.562 152.648V158H179.898L179.78 157.248H179.737C179.626 157.434 179.483 157.59 179.307 157.717C179.131 157.844 178.932 157.938 178.711 158C178.493 158.065 178.26 158.098 178.013 158.098C177.59 158.098 177.235 158.029 176.948 157.893C176.662 157.756 176.446 157.544 176.299 157.258C176.156 156.971 176.084 156.604 176.084 156.154V152.648H176.904V156.096C176.904 156.542 177.005 156.875 177.207 157.097C177.409 157.315 177.717 157.424 178.13 157.424C178.527 157.424 178.843 157.349 179.077 157.199C179.315 157.049 179.486 156.83 179.59 156.54C179.694 156.247 179.746 155.889 179.746 155.466V152.648H180.562ZM184.91 152.551C185.545 152.551 186.025 152.707 186.35 153.02C186.676 153.329 186.838 153.827 186.838 154.514V158H186.038V154.567C186.038 154.121 185.935 153.788 185.73 153.566C185.528 153.345 185.217 153.234 184.797 153.234C184.205 153.234 183.788 153.402 183.547 153.737C183.307 154.073 183.186 154.559 183.186 155.197V158H182.376V152.648H183.03L183.152 153.42H183.196C183.31 153.231 183.455 153.073 183.63 152.946C183.806 152.816 184.003 152.718 184.221 152.653C184.439 152.585 184.669 152.551 184.91 152.551Z" fill="#101828"/>
<path d="M46.834 57.1895C46.3613 57.1895 45.9355 57.2715 45.5566 57.4355C45.1816 57.5957 44.8613 57.8301 44.5957 58.1387C44.334 58.4434 44.1328 58.8125 43.9922 59.2461C43.8516 59.6797 43.7812 60.168 43.7812 60.7109C43.7812 61.4297 43.8926 62.0547 44.1152 62.5859C44.3418 63.1133 44.6777 63.5215 45.123 63.8105C45.5723 64.0996 46.1328 64.2441 46.8047 64.2441C47.1875 64.2441 47.5469 64.2129 47.8828 64.1504C48.2227 64.084 48.5527 64.002 48.873 63.9043V64.7715C48.5605 64.8887 48.2324 64.9746 47.8887 65.0293C47.5449 65.0879 47.1367 65.1172 46.6641 65.1172C45.793 65.1172 45.0645 64.9375 44.4785 64.5781C43.8965 64.2148 43.459 63.7031 43.166 63.043C42.877 62.3828 42.7324 61.6035 42.7324 60.7051C42.7324 60.0566 42.8223 59.4648 43.002 58.9297C43.1855 58.3906 43.4512 57.9258 43.7988 57.5352C44.1504 57.1445 44.5801 56.8438 45.0879 56.6328C45.5996 56.418 46.1855 56.3105 46.8457 56.3105C47.2793 56.3105 47.6973 56.3535 48.0996 56.4395C48.502 56.5254 48.8652 56.6484 49.1895 56.8086L48.791 57.6523C48.5176 57.5273 48.2168 57.4199 47.8887 57.3301C47.5645 57.2363 47.2129 57.1895 46.834 57.1895ZM56.1211 61.7773C56.1211 62.3047 56.0527 62.7754 55.916 63.1895C55.7793 63.6035 55.582 63.9531 55.3242 64.2383C55.0664 64.5234 54.7539 64.7422 54.3867 64.8945C54.0234 65.043 53.6113 65.1172 53.1504 65.1172C52.7207 65.1172 52.3262 65.043 51.9668 64.8945C51.6113 64.7422 51.3027 64.5234 51.041 64.2383C50.7832 63.9531 50.582 63.6035 50.4375 63.1895C50.2969 62.7754 50.2266 62.3047 50.2266 61.7773C50.2266 61.0742 50.3457 60.4766 50.584 59.9844C50.8223 59.4883 51.1621 59.1113 51.6035 58.8535C52.0488 58.5918 52.5781 58.4609 53.1914 58.4609C53.7773 58.4609 54.2891 58.5918 54.7266 58.8535C55.168 59.1152 55.5098 59.4941 55.752 59.9902C55.998 60.4824 56.1211 61.0781 56.1211 61.7773ZM51.2344 61.7773C51.2344 62.293 51.3027 62.7402 51.4395 63.1191C51.5762 63.498 51.7871 63.791 52.0723 63.998C52.3574 64.2051 52.7246 64.3086 53.1738 64.3086C53.6191 64.3086 53.9844 64.2051 54.2695 63.998C54.5586 63.791 54.7715 63.498 54.9082 63.1191C55.0449 62.7402 55.1133 62.293 55.1133 61.7773C55.1133 61.2656 55.0449 60.8242 54.9082 60.4531C54.7715 60.0781 54.5605 59.7891 54.2754 59.5859C53.9902 59.3828 53.6211 59.2812 53.168 59.2812C52.5 59.2812 52.0098 59.502 51.6973 59.9434C51.3887 60.3848 51.2344 60.9961 51.2344 61.7773ZM63.1055 58.5781V65H62.3086L62.168 64.0977H62.1152C61.9824 64.3203 61.8105 64.5078 61.5996 64.6602C61.3887 64.8125 61.1504 64.9258 60.8848 65C60.623 65.0781 60.3438 65.1172 60.0469 65.1172C59.5391 65.1172 59.1133 65.0352 58.7695 64.8711C58.4258 64.707 58.166 64.4531 57.9902 64.1094C57.8184 63.7656 57.7324 63.3242 57.7324 62.7852V58.5781H58.7168V62.7148C58.7168 63.25 58.8379 63.6504 59.0801 63.916C59.3223 64.1777 59.6914 64.3086 60.1875 64.3086C60.6641 64.3086 61.043 64.2188 61.3242 64.0391C61.6094 63.8594 61.8145 63.5957 61.9395 63.248C62.0645 62.8965 62.127 62.4668 62.127 61.959V58.5781H63.1055ZM68.0801 58.4609C68.209 58.4609 68.3438 58.4688 68.4844 58.4844C68.625 58.4961 68.75 58.5137 68.8594 58.5371L68.7363 59.4395C68.6309 59.4121 68.5137 59.3906 68.3848 59.375C68.2559 59.3594 68.1348 59.3516 68.0215 59.3516C67.7637 59.3516 67.5195 59.4043 67.2891 59.5098C67.0625 59.6113 66.8633 59.7598 66.6914 59.9551C66.5195 60.1465 66.3848 60.3789 66.2871 60.6523C66.1895 60.9219 66.1406 61.2227 66.1406 61.5547V65H65.1621V58.5781H65.9707L66.0762 59.7617H66.1172C66.25 59.5234 66.4102 59.3066 66.5977 59.1113C66.7852 58.9121 67.002 58.7539 67.248 58.6367C67.498 58.5195 67.7754 58.4609 68.0801 58.4609ZM74.2266 63.2422C74.2266 63.6523 74.123 63.998 73.916 64.2793C73.7129 64.5566 73.4199 64.7656 73.0371 64.9062C72.6582 65.0469 72.2051 65.1172 71.6777 65.1172C71.2285 65.1172 70.8398 65.082 70.5117 65.0117C70.1836 64.9414 69.8965 64.8418 69.6504 64.7129V63.8164C69.9121 63.9453 70.2246 64.0625 70.5879 64.168C70.9512 64.2734 71.3223 64.3262 71.7012 64.3262C72.2559 64.3262 72.6582 64.2363 72.9082 64.0566C73.1582 63.877 73.2832 63.6328 73.2832 63.3242C73.2832 63.1484 73.2324 62.9941 73.1309 62.8613C73.0332 62.7246 72.8672 62.5938 72.6328 62.4688C72.3984 62.3398 72.0742 62.1992 71.6602 62.0469C71.25 61.8906 70.8945 61.7363 70.5938 61.584C70.2969 61.4277 70.0664 61.2383 69.9023 61.0156C69.7422 60.793 69.6621 60.5039 69.6621 60.1484C69.6621 59.6055 69.8809 59.1895 70.3184 58.9004C70.7598 58.6074 71.3379 58.4609 72.0527 58.4609C72.4395 58.4609 72.8008 58.5 73.1367 58.5781C73.4766 58.6523 73.793 58.7539 74.0859 58.8828L73.7578 59.6621C73.4922 59.5488 73.209 59.4531 72.9082 59.375C72.6074 59.2969 72.3008 59.2578 71.9883 59.2578C71.5391 59.2578 71.1934 59.332 70.9512 59.4805C70.7129 59.6289 70.5938 59.832 70.5938 60.0898C70.5938 60.2891 70.6484 60.4531 70.7578 60.582C70.8711 60.7109 71.0508 60.832 71.2969 60.9453C71.543 61.0586 71.8672 61.1914 72.2695 61.3438C72.6719 61.4922 73.0195 61.6465 73.3125 61.8066C73.6055 61.9629 73.8301 62.1543 73.9863 62.3809C74.1465 62.6035 74.2266 62.8906 74.2266 63.2422ZM78.2637 58.4609C78.8105 58.4609 79.2793 58.582 79.6699 58.8242C80.0605 59.0664 80.3594 59.4062 80.5664 59.8438C80.7734 60.2773 80.877 60.7852 80.877 61.3672V61.9707H76.4414C76.4531 62.7246 76.6406 63.2988 77.0039 63.6934C77.3672 64.0879 77.8789 64.2852 78.5391 64.2852C78.9453 64.2852 79.3047 64.248 79.6172 64.1738C79.9297 64.0996 80.2539 63.9902 80.5898 63.8457V64.7012C80.2656 64.8457 79.9434 64.9512 79.623 65.0176C79.3066 65.084 78.9316 65.1172 78.498 65.1172C77.8809 65.1172 77.3418 64.9922 76.8809 64.7422C76.4238 64.4883 76.0684 64.1172 75.8145 63.6289C75.5605 63.1406 75.4336 62.543 75.4336 61.8359C75.4336 61.1445 75.5488 60.5469 75.7793 60.043C76.0137 59.5352 76.3418 59.1445 76.7637 58.8711C77.1895 58.5977 77.6895 58.4609 78.2637 58.4609ZM78.252 59.2578C77.7324 59.2578 77.3184 59.4277 77.0098 59.7676C76.7012 60.1074 76.5176 60.582 76.459 61.1914H79.8574C79.8535 60.8086 79.793 60.4727 79.6758 60.1836C79.5625 59.8906 79.3887 59.6641 79.1543 59.5039C78.9199 59.3398 78.6191 59.2578 78.252 59.2578ZM48.5625 75.7773C48.5625 76.3047 48.4941 76.7754 48.3574 77.1895C48.2207 77.6035 48.0234 77.9531 47.7656 78.2383C47.5078 78.5234 47.1953 78.7422 46.8281 78.8945C46.4648 79.043 46.0527 79.1172 45.5918 79.1172C45.1621 79.1172 44.7676 79.043 44.4082 78.8945C44.0527 78.7422 43.7441 78.5234 43.4824 78.2383C43.2246 77.9531 43.0234 77.6035 42.8789 77.1895C42.7383 76.7754 42.668 76.3047 42.668 75.7773C42.668 75.0742 42.7871 74.4766 43.0254 73.9844C43.2637 73.4883 43.6035 73.1113 44.0449 72.8535C44.4902 72.5918 45.0195 72.4609 45.6328 72.4609C46.2188 72.4609 46.7305 72.5918 47.168 72.8535C47.6094 73.1152 47.9512 73.4941 48.1934 73.9902C48.4395 74.4824 48.5625 75.0781 48.5625 75.7773ZM43.6758 75.7773C43.6758 76.293 43.7441 76.7402 43.8809 77.1191C44.0176 77.498 44.2285 77.791 44.5137 77.998C44.7988 78.2051 45.166 78.3086 45.6152 78.3086C46.0605 78.3086 46.4258 78.2051 46.7109 77.998C47 77.791 47.2129 77.498 47.3496 77.1191C47.4863 76.7402 47.5547 76.293 47.5547 75.7773C47.5547 75.2656 47.4863 74.8242 47.3496 74.4531C47.2129 74.0781 47.002 73.7891 46.7168 73.5859C46.4316 73.3828 46.0625 73.2812 45.6094 73.2812C44.9414 73.2812 44.4512 73.502 44.1387 73.9434C43.8301 74.3848 43.6758 74.9961 43.6758 75.7773ZM51.6562 79L49.2188 72.5781H50.2617L51.6738 76.4629C51.7715 76.7285 51.8711 77.0215 51.9727 77.3418C52.0742 77.6621 52.1445 77.9199 52.1836 78.1152H52.2246C52.2715 77.9199 52.3496 77.6621 52.459 77.3418C52.5684 77.0176 52.668 76.7246 52.7578 76.4629L54.1699 72.5781H55.2129L52.7695 79H51.6562ZM58.7168 72.4609C59.2637 72.4609 59.7324 72.582 60.123 72.8242C60.5137 73.0664 60.8125 73.4062 61.0195 73.8438C61.2266 74.2773 61.3301 74.7852 61.3301 75.3672V75.9707H56.8945C56.9062 76.7246 57.0938 77.2988 57.457 77.6934C57.8203 78.0879 58.332 78.2852 58.9922 78.2852C59.3984 78.2852 59.7578 78.248 60.0703 78.1738C60.3828 78.0996 60.707 77.9902 61.043 77.8457V78.7012C60.7188 78.8457 60.3965 78.9512 60.0762 79.0176C59.7598 79.084 59.3848 79.1172 58.9512 79.1172C58.334 79.1172 57.7949 78.9922 57.334 78.7422C56.877 78.4883 56.5215 78.1172 56.2676 77.6289C56.0137 77.1406 55.8867 76.543 55.8867 75.8359C55.8867 75.1445 56.002 74.5469 56.2324 74.043C56.4668 73.5352 56.7949 73.1445 57.2168 72.8711C57.6426 72.5977 58.1426 72.4609 58.7168 72.4609ZM58.7051 73.2578C58.1855 73.2578 57.7715 73.4277 57.4629 73.7676C57.1543 74.1074 56.9707 74.582 56.9121 75.1914H60.3105C60.3066 74.8086 60.2461 74.4727 60.1289 74.1836C60.0156 73.8906 59.8418 73.6641 59.6074 73.5039C59.373 73.3398 59.0723 73.2578 58.7051 73.2578ZM65.9004 72.4609C66.0293 72.4609 66.1641 72.4688 66.3047 72.4844C66.4453 72.4961 66.5703 72.5137 66.6797 72.5371L66.5566 73.4395C66.4512 73.4121 66.334 73.3906 66.2051 73.375C66.0762 73.3594 65.9551 73.3516 65.8418 73.3516C65.584 73.3516 65.3398 73.4043 65.1094 73.5098C64.8828 73.6113 64.6836 73.7598 64.5117 73.9551C64.3398 74.1465 64.2051 74.3789 64.1074 74.6523C64.0098 74.9219 63.9609 75.2227 63.9609 75.5547V79H62.9824V72.5781H63.791L63.8965 73.7617H63.9375C64.0703 73.5234 64.2305 73.3066 64.418 73.1113C64.6055 72.9121 64.8223 72.7539 65.0684 72.6367C65.3184 72.5195 65.5957 72.4609 65.9004 72.4609ZM69.3047 79L66.8672 72.5781H67.9102L69.3223 76.4629C69.4199 76.7285 69.5195 77.0215 69.6211 77.3418C69.7227 77.6621 69.793 77.9199 69.832 78.1152H69.873C69.9199 77.9199 69.998 77.6621 70.1074 77.3418C70.2168 77.0176 70.3164 76.7246 70.4062 76.4629L71.8184 72.5781H72.8613L70.418 79H69.3047ZM74.8652 72.5781V79H73.8926V72.5781H74.8652ZM74.3906 70.1758C74.5508 70.1758 74.6875 70.2285 74.8008 70.334C74.918 70.4355 74.9766 70.5957 74.9766 70.8145C74.9766 71.0293 74.918 71.1895 74.8008 71.2949C74.6875 71.4004 74.5508 71.4531 74.3906 71.4531C74.2227 71.4531 74.082 71.4004 73.9688 71.2949C73.8594 71.1895 73.8047 71.0293 73.8047 70.8145C73.8047 70.5957 73.8594 70.4355 73.9688 70.334C74.082 70.2285 74.2227 70.1758 74.3906 70.1758ZM79.4004 72.4609C79.9473 72.4609 80.416 72.582 80.8066 72.8242C81.1973 73.0664 81.4961 73.4062 81.7031 73.8438C81.9102 74.2773 82.0137 74.7852 82.0137 75.3672V75.9707H77.5781C77.5898 76.7246 77.7773 77.2988 78.1406 77.6934C78.5039 78.0879 79.0156 78.2852 79.6758 78.2852C80.082 78.2852 80.4414 78.248 80.7539 78.1738C81.0664 78.0996 81.3906 77.9902 81.7266 77.8457V78.7012C81.4023 78.8457 81.0801 78.9512 80.7598 79.0176C80.4434 79.084 80.0684 79.1172 79.6348 79.1172C79.0176 79.1172 78.4785 78.9922 78.0176 78.7422C77.5605 78.4883 77.2051 78.1172 76.9512 77.6289C76.6973 77.1406 76.5703 76.543 76.5703 75.8359C76.5703 75.1445 76.6855 74.5469 76.916 74.043C77.1504 73.5352 77.4785 73.1445 77.9004 72.8711C78.3262 72.5977 78.8262 72.4609 79.4004 72.4609ZM79.3887 73.2578C78.8691 73.2578 78.4551 73.4277 78.1465 73.7676C77.8379 74.1074 77.6543 74.582 77.5957 75.1914H80.9941C80.9902 74.8086 80.9297 74.4727 80.8125 74.1836C80.6992 73.8906 80.5254 73.6641 80.291 73.5039C80.0566 73.3398 79.7559 73.2578 79.3887 73.2578ZM88.8926 78.9883L87.75 75.25C87.6992 75.0898 87.6504 74.9336 87.6035 74.7812C87.5605 74.625 87.5195 74.4766 87.4805 74.3359C87.4453 74.1914 87.4121 74.0586 87.3809 73.9375C87.3535 73.8125 87.3301 73.7051 87.3105 73.6152H87.2695C87.2539 73.7051 87.2324 73.8125 87.2051 73.9375C87.1777 74.0586 87.1445 74.1914 87.1055 74.3359C87.0703 74.4805 87.0312 74.6328 86.9883 74.793C86.9453 74.9492 86.8965 75.1074 86.8418 75.2676L85.6465 78.9883H84.5508L82.7812 72.5664H83.7891L84.7148 76.1113C84.7773 76.3457 84.8359 76.5781 84.8906 76.8086C84.9492 77.0352 84.998 77.25 85.0371 77.4531C85.0801 77.6523 85.1113 77.8262 85.1309 77.9746H85.1777C85.2012 77.877 85.2266 77.7598 85.2539 77.623C85.2852 77.4863 85.3184 77.3418 85.3535 77.1895C85.3926 77.0332 85.4336 76.8789 85.4766 76.7266C85.5195 76.5703 85.5625 76.4238 85.6055 76.2871L86.7891 72.5664H87.8379L88.9805 76.2812C89.0391 76.4688 89.0957 76.6641 89.1504 76.8672C89.209 77.0703 89.2617 77.2676 89.3086 77.459C89.3555 77.6465 89.3887 77.8145 89.4082 77.9629H89.4551C89.4707 77.8301 89.5 77.666 89.543 77.4707C89.5859 77.2754 89.6348 77.0605 89.6895 76.8262C89.748 76.5918 89.8086 76.3535 89.8711 76.1113L90.8086 72.5664H91.7988L90.0234 78.9883H88.8926Z" fill="#101828"/>
<path d="M142.82 70.3711H145.234V71.168H142.82V73.6523H142.018V71.168H139.604V70.3711H142.018V67.875H142.82V70.3711ZM150.08 75H149.131V68.9297C149.131 68.6992 149.131 68.502 149.131 68.3379C149.135 68.1699 149.139 68.0176 149.143 67.8809C149.15 67.7402 149.16 67.5977 149.172 67.4531C149.051 67.5781 148.938 67.6855 148.832 67.7754C148.727 67.8613 148.596 67.9688 148.439 68.0977L147.461 68.8828L146.951 68.2207L149.271 66.4336H150.08V75ZM156.033 69.7617C156.615 69.7617 157.121 69.8613 157.551 70.0605C157.98 70.2559 158.312 70.541 158.547 70.916C158.785 71.291 158.904 71.7461 158.904 72.2812C158.904 72.8672 158.777 73.373 158.523 73.7988C158.27 74.2207 157.904 74.5469 157.428 74.7773C156.951 75.0039 156.381 75.1172 155.717 75.1172C155.271 75.1172 154.857 75.0781 154.475 75C154.092 74.9219 153.77 74.8047 153.508 74.6484V73.7227C153.793 73.8945 154.139 74.0312 154.545 74.1328C154.951 74.2344 155.346 74.2852 155.729 74.2852C156.162 74.2852 156.541 74.2168 156.865 74.0801C157.193 73.9395 157.447 73.7285 157.627 73.4473C157.811 73.1621 157.902 72.8047 157.902 72.375C157.902 71.8047 157.727 71.3652 157.375 71.0566C157.027 70.7441 156.477 70.5879 155.723 70.5879C155.48 70.5879 155.215 70.6074 154.926 70.6465C154.637 70.6855 154.398 70.7285 154.211 70.7754L153.719 70.4531L154.047 66.4336H158.307V67.3242H154.879L154.662 69.9082C154.811 69.877 155.002 69.8457 155.236 69.8145C155.471 69.7793 155.736 69.7617 156.033 69.7617ZM161.939 66.3105C162.525 66.3105 162.969 66.5449 163.27 67.0137C163.574 67.4785 163.727 68.1367 163.727 68.9883C163.727 69.8398 163.58 70.5039 163.287 70.9805C162.994 71.4531 162.545 71.6895 161.939 71.6895C161.377 71.6895 160.945 71.4531 160.645 70.9805C160.348 70.5039 160.199 69.8398 160.199 68.9883C160.199 68.1367 160.342 67.4785 160.627 67.0137C160.912 66.5449 161.35 66.3105 161.939 66.3105ZM161.939 67.0078C161.623 67.0078 161.391 67.1738 161.242 67.5059C161.094 67.834 161.02 68.3281 161.02 68.9883C161.02 69.6484 161.094 70.1465 161.242 70.4824C161.391 70.8184 161.623 70.9863 161.939 70.9863C162.268 70.9863 162.512 70.8184 162.672 70.4824C162.832 70.1465 162.912 69.6484 162.912 68.9883C162.912 68.332 162.832 67.8379 162.672 67.5059C162.516 67.1738 162.271 67.0078 161.939 67.0078ZM167.365 66.4336L162.613 75H161.758L166.51 66.4336H167.365ZM167.137 69.7441C167.719 69.7441 168.162 69.9785 168.467 70.4473C168.771 70.9121 168.924 71.5703 168.924 72.4219C168.924 73.2695 168.777 73.9316 168.484 74.4082C168.191 74.8809 167.742 75.1172 167.137 75.1172C166.57 75.1172 166.139 74.8809 165.842 74.4082C165.545 73.9316 165.396 73.2695 165.396 72.4219C165.396 71.5703 165.537 70.9121 165.818 70.4473C166.104 69.9785 166.543 69.7441 167.137 69.7441ZM167.137 70.4473C166.82 70.4473 166.588 70.6113 166.439 70.9395C166.291 71.2676 166.217 71.7617 166.217 72.4219C166.217 73.082 166.291 73.5801 166.439 73.916C166.588 74.248 166.82 74.4141 167.137 74.4141C167.465 74.4141 167.709 74.25 167.869 73.9219C168.029 73.5898 168.109 73.0898 168.109 72.4219C168.109 71.7656 168.029 71.2734 167.869 70.9453C167.713 70.6133 167.469 70.4473 167.137 70.4473Z" fill="#101828"/>
</g>
<defs>
<filter id="filter0_d_9_52" x="0" y="0" width="256" height="213" filterUnits="userSpaceOnUse" color-interpolation-filters="sRGB">
<feFlood flood-opacity="0" result="BackgroundImageFix"/>
<feColorMatrix in="SourceAlpha" type="matrix" values="0 0 0 0 0 0 0 0 0 0 0 0 0 0 0 0 0 0 127 0" result="hardAlpha"/>
<feOffset dx="-2" dy="12"/>
<feGaussianBlur stdDeviation="12.5"/>
<feComposite in2="hardAlpha" operator="out"/>
<feColorMatrix type="matrix" values="0 0 0 0 0.379167 0 0 0 0 0.379167 0 0 0 0 0.379167 0 0 0 0.1 0"/>
<feBlend mode="normal" in2="BackgroundImageFix" result="effect1_dropShadow_9_52"/>
<feBlend mode="normal" in="SourceGraphic" in2="effect1_dropShadow_9_52" result="shape"/>
</filter>
</defs>
</svg>
